<svg width="108" height="119" viewBox="0 0 108 119" fill="none" xmlns="http://www.w3.org/2000/svg">
<g clip-path="url(#clip0)">
<path opacity="0.24" d="M97.0751 21.4205C96.364 11.7768 88.9394 3.0381 79.5952 0.834877C71.1574 -1.15693 62.3364 1.80667 53.696 1.14274C50.343 0.883096 47.0379 0.078215 43.6738 -0.00709504C39.9761 -0.0734735 36.3128 0.716874 32.9669 2.30287C29.621 3.88886 26.6822 6.22804 24.3775 9.13962C18.9979 16.046 15.2912 24.6067 14.3774 33.3343C11.5771 60.1327 1.66175 66.8277 0.471621 74.4611C-4.13047 103.949 25.9397 117.717 49.8456 118.93C71.6475 120.043 100.774 106.159 104.437 101.452C109.732 94.635 108.192 77.5286 105.819 69.2127C103.917 62.5363 100.97 55.9117 100.406 48.9386C99.9417 43.156 100.487 39.7474 98.2247 34.0205C96.6403 30.0331 97.3846 25.6156 97.0751 21.4205Z" fill="#687EFD"/>
<path opacity="0.44" d="M31.5294 92.6912L12.9699 97.9952L5.43488 71.2895L5.84755 70.6664L19.6502 67.2243L22.6679 68.2295L24.9486 69.3682L31.9421 92.068L31.5294 92.6912Z" fill="#687EFD"/>
<path d="M99.1274 44.4577C99.1288 46.3655 98.7566 48.2549 98.032 50.0178C97.3074 51.7808 96.2446 53.3826 94.9045 54.7316C93.5643 56.0807 91.9731 57.1505 90.2219 57.8799C88.4706 58.6094 86.5937 58.9841 84.6984 58.9826H30.7445C26.951 59.0272 23.2927 57.5657 20.562 54.9146C17.8313 52.2636 16.248 48.6363 16.1549 44.8185C16.0619 41.0006 17.4667 37.2996 20.065 34.5169C22.6632 31.7342 26.2459 30.0939 30.037 29.9513C30.6022 26.7128 32.2817 23.778 34.7812 21.6613C37.2807 19.5446 40.4407 18.3812 43.707 18.3751H45.5493C48.776 18.3769 51.9019 19.5071 54.3924 21.5723C55.8067 17.9181 58.4465 14.8772 61.8542 12.9766C65.262 11.076 69.2229 10.4355 73.0505 11.1662C76.8781 11.8968 80.3312 13.9525 82.8112 16.977C85.2913 20.0014 86.6419 23.8041 86.6292 27.7258C86.6365 28.5091 86.5711 29.2914 86.4339 30.0625C89.932 30.4851 93.1551 32.1831 95.494 34.8355C97.8329 37.4879 99.1255 40.911 99.1274 44.4577Z" fill="#687EFD"/>
<path d="M99.1274 44.4577C99.1288 46.3655 98.7566 48.2549 98.032 50.0178C97.3074 51.7808 96.2446 53.3826 94.9045 54.7316C93.5643 56.0807 91.9731 57.1505 90.2219 57.8799C88.4706 58.6094 86.5937 58.9841 84.6984 58.9826H30.7445C26.951 59.0272 23.2927 57.5657 20.562 54.9146C17.8313 52.2636 16.248 48.6363 16.1549 44.8185C16.0619 41.0006 17.4667 37.2996 20.065 34.5169C22.6632 31.7342 26.2459 30.0939 30.037 29.9513C30.6022 26.7128 32.2817 23.778 34.7812 21.6613C37.2807 19.5446 40.4407 18.3812 43.707 18.3751H45.5493C48.776 18.3769 51.9019 19.5071 54.3924 21.5723C55.8067 17.9181 58.4465 14.8772 61.8542 12.9766C65.262 11.076 69.2229 10.4355 73.0505 11.1662C76.8781 11.8968 80.3312 13.9525 82.8112 16.977C85.2913 20.0014 86.6419 23.8041 86.6292 27.7258C86.6365 28.5091 86.5711 29.2914 86.4339 30.0625C89.932 30.4851 93.1551 32.1831 95.494 34.8355C97.8329 37.4879 99.1255 40.911 99.1274 44.4577Z" fill="url(#paint0_linear)"/>
<path d="M98.9211 40.2774C98.9203 42.119 98.5482 43.9413 97.8275 45.634C97.1068 47.3267 96.0523 48.8546 94.728 50.1251C92.0035 52.756 88.3706 54.2188 84.5953 54.2052H31.0246C23.0952 54.2052 16.6729 47.9887 16.6729 40.2848C16.675 38.4428 17.0476 36.6203 17.7682 34.9272C18.4888 33.2341 19.5426 31.7054 20.866 30.4334C23.42 27.9655 26.7834 26.5246 30.3208 26.383C30.8129 23.6475 32.1547 21.1397 34.1528 19.2207C36.7718 16.6872 40.2664 15.2774 43.8986 15.289H45.7409C48.9253 15.2855 52.0177 16.3636 54.5177 18.349C56.9127 12.3662 62.8929 8.12666 69.9305 8.12666C79.0942 8.12666 86.5113 15.3335 86.5113 24.2391C86.5179 24.9856 86.4525 25.7309 86.316 26.4646C93.42 27.2992 98.9211 33.1633 98.9211 40.2774Z" fill="white"/>
<path d="M30.6486 77.6024H21.496C21.2028 77.6024 20.9217 77.4852 20.7144 77.2765C20.5071 77.0678 20.3906 76.7848 20.3906 76.4897C20.3906 76.1945 20.5071 75.9115 20.7144 75.7028C20.9217 75.4941 21.2028 75.3769 21.496 75.3769H30.6486C31.3268 75.3769 31.9772 75.1057 32.4568 74.623C32.9363 74.1402 33.2057 73.4855 33.2057 72.8028V56.9425C33.2057 56.6474 33.3222 56.3644 33.5295 56.1557C33.7368 55.947 34.0179 55.8298 34.3111 55.8298C34.6043 55.8298 34.8854 55.947 35.0927 56.1557C35.3 56.3644 35.4165 56.6474 35.4165 56.9425V72.8139C35.4145 74.0852 34.9112 75.3037 34.0172 76.2016C33.1231 77.0995 31.9115 77.6034 30.6486 77.6024Z" fill="#687EFD"/>
<path d="M85.2807 77.6024H76.1281C74.8665 77.6014 73.6567 77.0967 72.7643 76.199C71.8718 75.3013 71.3695 74.0839 71.3676 72.8139V56.9425C71.3676 56.6474 71.484 56.3644 71.6913 56.1557C71.8986 55.947 72.1798 55.8298 72.4729 55.8298C72.7661 55.8298 73.0473 55.947 73.2546 56.1557C73.4619 56.3644 73.5783 56.6474 73.5783 56.9425V72.8139C73.5783 73.4966 73.8477 74.1513 74.3273 74.6341C74.8069 75.1168 75.4573 75.388 76.1355 75.388H85.2881C85.5812 75.388 85.8624 75.5053 86.0697 75.7139C86.277 75.9226 86.3934 76.2057 86.3934 76.5008C86.3934 76.7959 86.277 77.0789 86.0697 77.2876C85.8624 77.4963 85.5812 77.6135 85.2881 77.6135L85.2807 77.6024Z" fill="#687EFD"/>
<path d="M54.8345 98.1287C54.5414 98.1287 54.2602 98.0115 54.0529 97.8028C53.8456 97.5942 53.7291 97.3111 53.7291 97.016V58.1888C53.7291 57.8937 53.8456 57.6107 54.0529 57.402C54.2602 57.1933 54.5414 57.0761 54.8345 57.0761C55.1277 57.0761 55.4089 57.1933 55.6162 57.402C55.8235 57.6107 55.9399 57.8937 55.9399 58.1888V97.0197C55.9389 97.3142 55.822 97.5963 55.6149 97.8041C55.4077 98.012 55.1271 98.1287 54.8345 98.1287Z" fill="#687EFD"/>
<path d="M54.5141 18.3491L58.2797 22.2697C58.2797 22.2697 60.6195 8.12304 75.3617 9.09484C75.3617 9.09484 61.4927 4.1654 54.5141 18.3491Z" fill="url(#paint1_linear)"/>
<path d="M30.3208 26.3831C30.3208 26.3831 32.9995 26.0826 35.5492 29.2057C35.5492 29.2057 36.0983 16.5947 46.7395 16.3758C46.7395 16.3758 42.3805 13.5717 36.3046 17.5183C30.8624 21.0493 30.3208 26.3831 30.3208 26.3831Z" fill="url(#paint2_linear)"/>
<path d="M31.9419 92.068L13.3825 97.372L5.84741 70.6663L20.0627 66.6011L23.0804 67.6025L25.3612 68.745L31.9419 92.068Z" fill="white"/>
<path opacity="0.44" d="M20.0038 66.6011L23.2094 70.6811L25.4202 68.6708C25.4202 68.6708 22.4835 67.1463 20.0038 66.6011Z" fill="#687EFD"/>
<path opacity="0.1" d="M23.2094 70.67C23.2094 70.67 24.499 70.1767 24.9375 70.5662C25.376 70.9556 30.984 92.3573 30.984 92.3573L31.942 92.0643L25.4055 68.6597L23.2094 70.67Z" fill="#687EFD"/>
<path opacity="0.44" d="M10.2542 75.6774L22.9772 72.2835L23.2351 73.0995L10.5269 76.549L10.2542 75.6774Z" fill="#687EFD"/>
<path opacity="0.44" d="M11.0796 78.5371L23.8026 75.1433L24.0605 75.9593L11.3523 79.4088L11.0796 78.5371Z" fill="#687EFD"/>
<path opacity="0.44" d="M11.9087 81.4005L24.628 78.0067L24.8896 78.819L12.1776 82.2684L11.9087 81.4005Z" fill="#687EFD"/>
<path opacity="0.44" d="M12.734 84.2603L25.457 80.8664L25.715 81.6787L13.0067 85.1282L12.734 84.2603Z" fill="#687EFD"/>
<path d="M44.2118 92.4835L64.9268 95.588L61.43 114.775L40.4535 111.103L44.2118 92.4835Z" fill="#687EFD"/>
<path d="M44.0239 92.105L64.7389 95.2096L61.2422 114.397L40.2656 110.725L44.0239 92.105Z" fill="white"/>
<path opacity="0.44" d="M44.2118 92.4835L64.363 95.6436L60.8958 113.922L40.623 110.347L44.2118 92.4835Z" fill="#687EFD"/>
<path d="M45.6413 94.338L43.6111 105.692L52.8595 101.493L55.903 105.807L53.7622 107.735L58.5375 104.631L60.6783 107.431L62.8227 97.2905L45.6413 94.338Z" fill="white"/>
<path d="M88.6188 89.4011L82.2112 80.4621L89.9489 68.4037L97.7308 78.9525C97.7308 78.9525 99.7205 82.7877 97.8229 84.5459C95.9254 86.304 93.9725 84.0637 94.0941 83.2403C94.2157 82.4168 96.7433 79.1602 96.7433 79.1602L92.1965 73.0995L85.4721 83.0474L90.4316 90.3766C91.537 92.3833 90.9216 95.0242 88.8988 96.0887C88.521 96.3073 88.0977 96.4339 87.6626 96.4584C87.2276 96.4829 86.7929 96.4045 86.3932 96.2296C83.9982 95.1837 88.6188 89.4011 88.6188 89.4011Z" fill="white"/>
<path opacity="0.44" d="M88.9284 89.2973L82.5209 80.3583L90.2586 68.2999L98.0405 78.8487C98.0405 78.8487 100.03 82.6839 98.1326 84.442C96.235 86.2002 94.2822 83.9599 94.4038 83.1364C94.5254 82.313 97.053 79.0564 97.053 79.0564L92.5172 72.9994L85.7928 82.9473L90.756 90.2765C91.8614 92.2831 91.2424 94.924 89.2195 95.9886C88.8418 96.2072 88.4184 96.3338 87.9834 96.3583C87.5483 96.3827 87.1136 96.3044 86.714 96.1295C84.3116 95.0798 88.9284 89.2973 88.9284 89.2973Z" fill="#687EFD"/>
<path opacity="0.44" d="M89.3743 89.2306L82.9704 80.2879L90.7081 68.2332L98.49 78.7782C98.49 78.7782 100.476 82.6135 98.5822 84.3753C96.6883 86.1371 94.7317 83.8931 94.8533 83.066C94.9749 82.2389 97.5026 78.9859 97.5026 78.9859L92.9557 72.9252L86.2276 82.8731L91.1908 90.2024C92.2962 92.2127 91.6809 94.8499 89.6543 95.9144C89.2775 96.1338 88.8547 96.2609 88.4201 96.2854C87.9855 96.3099 87.5512 96.2311 87.1525 96.0554C84.7574 95.0094 89.3743 89.2306 89.3743 89.2306Z" fill="#687EFD"/>
<path d="M54.9046 77.2946C56.8073 77.2946 58.3497 75.7419 58.3497 73.8266C58.3497 71.9112 56.8073 70.3585 54.9046 70.3585C53.0019 70.3585 51.4595 71.9112 51.4595 73.8266C51.4595 75.7419 53.0019 77.2946 54.9046 77.2946Z" fill="white"/>
<path d="M54.9046 78.3999C54.0051 78.4006 53.1255 78.1327 52.3772 77.6301C51.6289 77.1274 51.0455 76.4126 50.7009 75.5761C50.3563 74.7396 50.266 73.819 50.4413 72.9308C50.6166 72.0426 51.0498 71.2267 51.6859 70.5864C52.322 69.946 53.1325 69.51 54.0148 69.3335C54.8972 69.1571 55.8117 69.248 56.6427 69.5949C57.4736 69.9418 58.1837 70.529 58.683 71.2823C59.1824 72.0355 59.4485 72.921 59.4478 73.8265C59.4458 75.0389 58.9666 76.201 58.115 77.0582C57.2634 77.9155 56.109 78.3979 54.9046 78.3999ZM54.9046 71.4675C54.4412 71.4675 53.9881 71.6059 53.6027 71.8651C53.2173 72.1243 52.917 72.4927 52.7396 72.9238C52.5622 73.3549 52.5158 73.8292 52.6062 74.2868C52.6967 74.7444 52.9199 75.1647 53.2476 75.4946C53.5753 75.8245 53.9929 76.0492 54.4475 76.1402C54.902 76.2313 55.3732 76.1845 55.8014 76.006C56.2296 75.8274 56.5956 75.5251 56.8531 75.1371C57.1106 74.7492 57.2481 74.2931 57.2481 73.8265C57.2481 73.2009 57.0012 72.6009 56.5617 72.1585C56.1222 71.7161 55.5262 71.4675 54.9046 71.4675Z" fill="#687EFD"/>
<path d="M72.6756 71.7494C74.5783 71.7494 76.1207 70.1967 76.1207 68.2814C76.1207 66.366 74.5783 64.8134 72.6756 64.8134C70.7729 64.8134 69.2304 66.366 69.2304 68.2814C69.2304 70.1967 70.7729 71.7494 72.6756 71.7494Z" fill="white"/>
<path d="M72.6755 72.8547C71.7762 72.8547 70.8972 72.5863 70.1494 72.0833C69.4017 71.5804 68.8189 70.8656 68.4748 70.0292C68.1307 69.1929 68.0406 68.2726 68.2161 67.3847C68.3915 66.4969 68.8245 65.6813 69.4604 65.0412C70.0963 64.4011 70.9065 63.9651 71.7885 63.7885C72.6705 63.6119 73.5847 63.7026 74.4155 64.049C75.2463 64.3954 75.9565 64.9821 76.4561 65.7348C76.9557 66.4875 77.2224 67.3724 77.2224 68.2777C77.2214 69.4913 76.742 70.6549 75.8895 71.513C75.037 72.3712 73.8811 72.8537 72.6755 72.8547ZM72.6755 65.9187C72.212 65.9187 71.759 66.057 71.3736 66.3162C70.9882 66.5754 70.6879 66.9439 70.5105 67.3749C70.3331 67.806 70.2867 68.2803 70.3771 68.7379C70.4676 69.1955 70.6907 69.6158 71.0185 69.9457C71.3462 70.2756 71.7638 70.5003 72.2183 70.5913C72.6729 70.6824 73.1441 70.6356 73.5723 70.4571C74.0005 70.2785 74.3665 69.9762 74.624 69.5883C74.8815 69.2003 75.0189 68.7442 75.0189 68.2777C75.0151 67.6542 74.7666 67.0576 74.3276 66.6179C73.8887 66.1781 73.2948 65.9307 72.6755 65.9298V65.9187Z" fill="#687EFD"/>
<path d="M34.3775 71.7494C36.2802 71.7494 37.8227 70.1967 37.8227 68.2814C37.8227 66.366 36.2802 64.8134 34.3775 64.8134C32.4749 64.8134 30.9324 66.366 30.9324 68.2814C30.9324 70.1967 32.4749 71.7494 34.3775 71.7494Z" fill="white"/>
<path d="M34.3775 72.8547C33.4781 72.8554 32.5987 72.5876 31.8505 72.0851C31.1022 71.5827 30.5189 70.8681 30.1742 70.0318C29.8295 69.1955 29.7389 68.2751 29.9139 67.387C30.089 66.4989 30.5217 65.683 31.1575 65.0425C31.7932 64.402 32.6034 63.9657 33.4855 63.7888C34.3676 63.6119 35.282 63.7023 36.113 64.0486C36.944 64.395 37.6544 64.9816 38.1541 65.7344C38.6539 66.4872 38.9207 67.3722 38.9207 68.2777C38.9187 69.4903 38.4396 70.6528 37.5881 71.5107C36.7366 72.3685 35.5822 72.8518 34.3775 72.8547ZM34.3775 65.9187C33.9141 65.9187 33.461 66.057 33.0756 66.3162C32.6902 66.5754 32.3899 66.9439 32.2125 67.3749C32.0351 67.806 31.9887 68.2803 32.0791 68.7379C32.1696 69.1955 32.3928 69.6158 32.7205 69.9457C33.0482 70.2756 33.4658 70.5003 33.9204 70.5913C34.3749 70.6824 34.8461 70.6356 35.2743 70.4571C35.7025 70.2785 36.0685 69.9762 36.326 69.5883C36.5835 69.2003 36.721 68.7442 36.721 68.2777C36.7171 67.6542 36.4686 67.0576 36.0296 66.6179C35.5907 66.1781 34.9968 65.9307 34.3775 65.9298V65.9187Z" fill="#687EFD"/>
</g>
<defs>
<linearGradient id="paint0_linear" x1="57.5317" y1="37.3324" x2="61.7172" y2="202.087" gradientUnits="userSpaceOnUse">
<stop stop-opacity="0"/>
<stop offset="0.95"/>
</linearGradient>
<linearGradient id="paint1_linear" x1="5065.86" y1="535.505" x2="3163.62" y2="2027.2" gradientUnits="userSpaceOnUse">
<stop stop-opacity="0"/>
<stop offset="0.95"/>
</linearGradient>
<linearGradient id="paint2_linear" x1="2899.65" y1="798.882" x2="1435.84" y2="1716.7" gradientUnits="userSpaceOnUse">
<stop stop-opacity="0"/>
<stop offset="0.95"/>
</linearGradient>
<clipPath id="clip0">
<rect width="108" height="119" fill="white"/>
</clipPath>
</defs>
</svg>
