<svg width="14" height="14" viewBox="0 0 14 14" fill="none" xmlns="http://www.w3.org/2000/svg">
<path d="M7.00053 8.20651C7.66688 8.20651 8.20706 7.66633 8.20706 6.99998C8.20706 6.33364 7.66688 5.79346 7.00053 5.79346C6.33419 5.79346 5.79401 6.33364 5.79401 6.99998C5.79401 7.66633 6.33419 8.20651 7.00053 8.20651Z" fill="white"/>
<path d="M13.7155 5.80419L12.0292 5.488C11.9267 5.14692 11.7923 4.81974 11.6258 4.51195L12.6016 3.08537C12.6919 2.95334 12.6731 2.75472 12.5599 2.64179L11.3569 1.43845C11.2436 1.32524 11.0453 1.307 10.9139 1.39705L9.4864 2.37339C9.16964 2.20256 8.83232 2.0656 8.48053 1.96224L8.16608 0.284621C8.13655 0.127399 7.98367 0 7.82326 0H6.12191C5.96179 0 5.80862 0.127399 5.7788 0.284621L5.46088 1.97874C5.12356 2.08182 4.80014 2.21616 4.49554 2.38178L3.08662 1.41789C2.95459 1.32756 2.75597 1.34609 2.64304 1.4593L1.4397 2.66264C1.32649 2.77585 1.30825 2.97419 1.3983 3.10622L2.36827 4.52382C2.20497 4.82842 2.07264 5.15156 1.9713 5.48829L0.285003 5.80419C0.12807 5.83401 0.000671387 5.98718 0.000671387 6.14729V7.84865C0.000671387 8.00877 0.12807 8.16194 0.285003 8.19205L1.97015 8.50794C2.07293 8.85192 2.20844 9.182 2.3758 9.4921L1.41683 10.8941C1.32649 11.0261 1.34502 11.2247 1.45823 11.3374L2.66129 12.5404C2.7745 12.6539 2.97283 12.6719 3.10487 12.5824L4.50626 11.6231C4.80767 11.7862 5.12762 11.9188 5.46146 12.0213L5.77909 13.716C5.80891 13.8732 5.96208 14 6.1222 14H7.82384C7.98425 14 8.13684 13.8732 8.16695 13.716L8.48169 12.0381C8.82914 11.9356 9.16327 11.8003 9.47714 11.6324L10.8962 12.6035C11.0282 12.6939 11.2268 12.6753 11.3398 12.5615L12.5422 11.3591C12.656 11.2456 12.674 11.0478 12.5842 10.9155L11.6186 9.50455C11.7891 9.19068 11.9261 8.85684 12.0306 8.50852L13.7155 8.19263C13.8721 8.16252 13.9992 8.00935 13.9992 7.84923V6.14787C14.0004 5.98718 13.8727 5.83401 13.7155 5.80419ZM7.00067 9.92004C5.38849 9.92004 4.08121 8.61276 4.08121 6.99971C4.08121 5.38782 5.38849 4.08024 7.00067 4.08024C8.61343 4.08024 9.92101 5.38782 9.92101 6.99971C9.92101 8.61276 8.61285 9.92004 7.00067 9.92004Z" fill="white"/>
</svg>
