<svg width="14" height="10" viewBox="0 0 14 10" fill="none" xmlns="http://www.w3.org/2000/svg">
<path fill-rule="evenodd" clip-rule="evenodd" d="M6.993 2.1C6.993 3.262 6.062 4.2 4.9 4.2C3.738 4.2 2.8 3.262 2.8 2.1C2.8 0.938 3.738 0 4.9 0C6.062 0 6.993 0.938 6.993 2.1ZM11.893 3.15C11.893 4.116 11.116 4.9 10.15 4.9C9.184 4.9 8.4 4.116 8.4 3.15C8.4 2.184 9.184 1.4 10.15 1.4C11.116 1.4 11.893 2.184 11.893 3.15ZM10.15 6.3C8.869 6.3 6.3 6.944 6.3 8.225V9.8H14V8.225C14 6.944 11.431 6.3 10.15 6.3ZM0 8.05C0 6.419 3.269 5.6 4.9 5.6C5.362 5.6 5.95 5.67 6.559 5.796C5.131 6.587 4.9 7.63 4.9 8.225V9.8H0V8.05Z" fill="white"/>
</svg>
