<svg width="216" height="70" viewBox="0 0 216 70" fill="none" xmlns="http://www.w3.org/2000/svg">
<g clip-path="url(#clip0)">
<path opacity="0.18" d="M67.4375 33.829C67.4374 39.7826 65.872 45.6308 62.899 50.7833C59.9261 55.9357 55.651 60.21 50.5053 63.1747C45.3596 66.1393 39.5254 67.6894 33.5917 67.6684C27.658 67.6474 21.8349 66.056 16.7101 63.055L18.087 64.307L1.53817 70.0054L7.12614 54.6369C3.8234 50.3882 1.57975 45.4096 0.581889 40.1152C-0.41597 34.8209 -0.139173 29.364 1.38925 24.1986C2.91767 19.0333 5.6535 14.3089 9.36908 10.4186C13.0847 6.52832 17.6725 3.58466 22.7509 1.83259C27.8292 0.0805174 33.2512 -0.42929 38.5656 0.345589C43.8799 1.12047 48.933 3.15763 53.3043 6.28753C57.6755 9.41744 61.2386 13.5496 63.6969 18.3401C66.1552 23.1305 67.4376 28.4408 67.4375 33.829Z" fill="#68E1FD"/>
<path d="M27.9829 45.2259C27.9829 45.2259 18.7109 45.4147 13.9995 53.1799C13.9995 53.1799 11.5417 64.2152 11.8482 66.568L17.9256 63.8051C18.1085 64.307 27.0363 67.8469 34.8186 67.4961C49.1731 66.854 55.6753 59.5583 55.6753 59.5583C55.6753 59.5583 54.1533 49.2029 45.645 46.8501C37.1366 44.4974 27.9829 45.2259 27.9829 45.2259Z" fill="#68E1FD"/>
<path d="M27.9184 44.7618C27.9184 44.7618 25.9123 45.0694 25.9768 46.5264C26.0414 47.9834 26.2834 52.3705 28.5368 51.3183C30.7903 50.266 32.6996 47.0822 32.6996 47.0822L27.9184 44.7618Z" fill="white"/>
<path d="M38.336 44.7618C38.336 44.7618 40.3421 45.0694 40.2829 46.5264C40.2237 47.9834 39.971 52.3705 37.7229 51.3183C35.4748 50.266 33.5601 47.0822 33.5601 47.0822L38.336 44.7618Z" fill="white"/>
<path d="M20.335 23.7596C20.335 23.7596 18.0546 38.2377 23.7878 40.0886C24.4131 40.4616 25.108 40.702 25.8296 40.7948C26.5511 40.8876 27.284 40.8309 27.9828 40.6283V45.2043C27.9828 45.2043 33.7752 49.5968 38.5241 44.8967V33.1167C38.5241 33.1167 37.9863 25.9127 36.5503 26.679C36.2223 26.8625 33.3234 26.5603 32.8501 21.2828C32.8501 21.2828 26.1919 18.3148 23.1102 20.3546C20.0285 22.3944 20.335 23.7596 20.335 23.7596Z" fill="#F7AF87"/>
<path d="M18.9313 23.274C19.2799 23.9091 19.7524 24.4672 20.3207 24.915C20.889 25.3629 21.5414 25.6912 22.239 25.8804C22.942 26.0486 23.6801 25.9894 24.3476 25.7112C25.0151 25.433 25.5779 24.9502 25.9553 24.3317C26.5312 25.1429 27.3844 25.7133 28.3524 25.9342C29.3203 26.1551 30.3354 26.0111 31.2044 25.5296C31.9681 26.6089 33.4256 26.9057 34.7326 26.8247C36.408 26.7491 38.0035 26.0843 39.2395 24.9468C39.8402 24.3708 40.2988 23.6621 40.5789 22.8771C40.859 22.0922 40.9528 21.2525 40.853 20.4248C40.5679 18.4875 39.1104 16.928 37.5507 15.757C35.0852 13.872 32.1628 12.6816 29.0854 12.3088C26.3049 11.9959 21.8625 12.3088 19.7327 14.4134C17.6029 16.5179 17.4093 20.7054 18.9313 23.274Z" fill="#DD6034"/>
<path d="M27.9829 40.6714C27.9829 40.6714 31.4948 39.7433 32.791 38.1352C32.791 38.1352 31 45.1881 27.9829 45.2474V40.6714Z" fill="url(#paint0_linear)"/>
<path d="M35.109 24.7957L35.3618 29.7872L36.3622 28.4166C36.5127 28.2061 36.7171 27.9795 36.9699 28.0226C37.2227 28.0658 37.2818 28.2439 37.3679 28.4166C37.7579 29.2209 37.8967 30.1247 37.7662 31.0096C37.6357 31.8945 37.2419 32.7192 36.6364 33.3757C36.4233 33.5601 36.2495 33.7859 36.1255 34.0395C36.0654 34.259 36.0508 34.4886 36.0825 34.714C36.1847 36.171 38.3252 37.8816 38.6909 36.8239C39.0566 35.7663 39.1266 34.6169 39.4708 33.5484C40.0154 32.1739 40.7802 30.898 41.735 29.771C42.6991 28.6402 43.4303 27.3288 43.8863 25.9127C44.2412 24.4773 43.9616 22.7883 42.8106 21.844C42.5945 21.7053 42.411 21.5212 42.2728 21.3043C42.2072 21.1319 42.1726 20.9492 42.1706 20.7647C42.0431 18.972 41.3043 17.278 40.0785 15.9675C39.4619 15.3202 38.7155 14.8114 37.8885 14.4747C37.0616 14.138 36.173 13.981 35.2811 14.014C34.979 14.0159 34.6813 14.0859 34.4099 14.2191C34.1627 14.3907 33.9541 14.6124 33.7976 14.8698C33.641 15.1273 33.54 15.4148 33.5009 15.7138C32.9255 18.412 34.1732 21.1101 34.6411 23.8514" fill="#DD6034"/>
<path opacity="0.18" d="M142.033 33.829C142.032 39.7828 140.466 45.6309 137.492 50.7831C134.519 55.9353 130.243 60.2094 125.097 63.1739C119.951 66.1384 114.117 67.6884 108.183 67.6675C102.249 67.6467 96.4258 66.0556 91.3007 63.055L92.6775 64.307L76.1126 70.0054L81.6952 54.6369C78.394 50.3879 76.1517 45.4093 75.1551 40.1155C74.1584 34.8216 74.4361 29.3654 75.965 24.2009C77.494 19.0364 80.23 14.3129 83.9455 10.4234C87.661 6.53396 92.2484 3.59093 97.3262 1.83922C102.404 0.087499 107.825 -0.422253 113.139 0.352368C118.453 1.12699 123.505 3.16359 127.876 6.29272C132.247 9.42185 135.81 13.553 138.269 18.3426C140.728 23.1321 142.011 28.4415 142.012 33.829H142.033Z" fill="#68E1FD"/>
<path d="M102.423 45.2259C102.423 45.2259 93.1508 45.4148 88.4394 53.1799C88.4394 53.1799 85.2125 64.307 85.5352 66.6705L92.699 64.3178C96.2701 66.3198 101.632 67.8523 109.259 67.507C123.64 66.8648 130.115 59.5529 130.115 59.5529C130.115 59.5529 128.593 49.1975 120.085 46.8448C111.577 44.492 102.423 45.2259 102.423 45.2259Z" fill="#68E1FD"/>
<path d="M122.58 32.8469C123.747 26.8679 124.796 17.6403 120.693 15.7516L118.003 15.6275C118.003 15.6275 116.03 11.0407 108.124 11.7854C100.218 12.5301 92.2472 19.216 95.8506 30.0786C97.7222 35.7123 94.3985 43.9092 94.3985 43.9092L106.026 43.866L123.979 43.294C122.372 40.0632 121.88 36.3885 122.58 32.8469Z" fill="#404040"/>
<path d="M120.816 23.6463C120.816 23.6463 123.097 38.1244 117.363 39.9807C116.738 40.3543 116.043 40.595 115.322 40.6878C114.6 40.7807 113.867 40.7236 113.168 40.5203V45.1018C113.168 45.1018 107.376 49.4943 102.627 44.7888V32.971C102.627 32.971 103.165 25.7724 104.601 26.5387C104.929 26.7168 107.828 26.4146 108.301 21.1425C108.301 21.1425 114.959 18.1691 118.041 20.2143C121.123 22.2595 120.816 23.6463 120.816 23.6463Z" fill="#F7AF87"/>
<path d="M113.168 40.5365C113.168 40.5365 109.657 39.6084 108.36 38.0003C108.36 38.0003 110.146 45.0532 113.168 45.1179V40.5365Z" fill="url(#paint1_linear)"/>
<path d="M116.046 19.448C114.266 19.448 112.33 19.7017 111.076 20.9644C109.527 22.5239 109.565 25.0062 108.887 27.0999C108.387 28.6951 107.385 30.0848 106.032 31.0608C105.354 31.5402 104.588 31.8792 103.778 32.058C102.968 32.2368 102.131 32.2519 101.315 32.1022C101.147 32.0845 100.985 32.0328 100.838 31.9503C100.691 31.8677 100.562 31.756 100.46 31.622C100.346 31.3798 100.307 31.1094 100.347 30.8449C100.503 27.877 100.852 24.8065 102.38 22.2649C103.232 20.8595 104.409 19.6805 105.811 18.8275C106.626 18.3057 107.543 17.967 108.5 17.8346C110.383 17.6187 112.211 18.4605 113.916 19.2862" fill="#404040"/>
<path d="M102.364 44.7618C102.364 44.7618 100.357 45.0694 100.422 46.5264C100.487 47.9834 100.729 52.3705 102.982 51.3183C105.236 50.266 107.145 47.0822 107.145 47.0822L102.364 44.7618Z" fill="white"/>
<path d="M112.781 44.7618C112.781 44.7618 114.787 45.0694 114.728 46.5264C114.669 47.9834 114.416 52.3705 112.168 51.3183C109.92 50.266 108.005 47.0822 108.005 47.0822L112.781 44.7618Z" fill="white"/>
<path d="M107.462 53.9894C108.077 53.9894 108.575 53.4892 108.575 52.8723C108.575 52.2554 108.077 51.7553 107.462 51.7553C106.847 51.7553 106.349 52.2554 106.349 52.8723C106.349 53.4892 106.847 53.9894 107.462 53.9894Z" fill="white"/>
<path d="M107.462 57.9394C108.077 57.9394 108.575 57.4393 108.575 56.8224C108.575 56.2055 108.077 55.7054 107.462 55.7054C106.847 55.7054 106.349 56.2055 106.349 56.8224C106.349 57.4393 106.847 57.9394 107.462 57.9394Z" fill="white"/>
<path d="M107.462 61.8894C108.077 61.8894 108.575 61.3893 108.575 60.7724C108.575 60.1555 108.077 59.6554 107.462 59.6554C106.847 59.6554 106.349 60.1555 106.349 60.7724C106.349 61.3893 106.847 61.8894 107.462 61.8894Z" fill="white"/>
<path opacity="0.18" d="M216.005 33.829C216.005 39.7826 214.44 45.6308 211.467 50.7833C208.494 55.9357 204.219 60.21 199.073 63.1747C193.927 66.1393 188.093 67.6894 182.16 67.6684C176.226 67.6474 170.403 66.0561 165.278 63.055L166.649 64.307L150.106 70.0054L155.71 54.6369C152.409 50.3879 150.167 45.4093 149.17 40.1155C148.173 34.8216 148.451 29.3654 149.98 24.2009C151.509 19.0364 154.245 14.3129 157.96 10.4234C161.676 6.53396 166.263 3.59093 171.341 1.83922C176.419 0.087499 181.84 -0.422253 187.154 0.352368C192.468 1.12699 197.52 3.16359 201.891 6.29272C206.262 9.42185 209.825 13.553 212.284 18.3426C214.743 23.1321 216.026 28.4415 216.027 33.829H216.005Z" fill="#68E1FD"/>
<path d="M176.4 45.2259C176.4 45.2259 167.128 45.4148 162.39 53.1799C162.39 53.1799 159.163 64.307 159.486 66.6705L166.649 64.3178C170.221 66.3198 175.583 67.8523 183.214 67.507C197.59 66.8648 204.066 59.5529 204.066 59.5529C204.066 59.5529 202.544 49.1975 194.035 46.8448C185.527 44.492 176.4 45.2259 176.4 45.2259Z" fill="#68E1FD"/>
<path d="M177.099 37.3042C177.099 37.3042 176.981 43.8822 176.4 45.2259C175.819 46.5695 180.956 50.6761 186.215 46.9257L186.565 45.2798C186.565 45.2798 185.635 40.7092 186.215 36.7214C186.796 32.7336 177.099 37.3042 177.099 37.3042Z" fill="#F7AF87"/>
<path d="M177.019 38.1676C177.019 38.1676 177.938 42.5871 181.832 42.8947C185.726 43.2023 186.043 41.8802 186.043 41.8802L186.14 36.2142L177.019 38.1676Z" fill="url(#paint2_linear)"/>
<path d="M171.178 23.9431C170.954 23.7805 170.698 23.6691 170.426 23.6169C170.155 23.5647 169.875 23.5729 169.607 23.6409C169.4 23.7279 169.216 23.8629 169.07 24.0348C168.252 24.9036 168.295 26.2743 168.532 27.4453C168.678 28.1022 168.875 28.7464 169.123 29.3717C169.223 29.6621 169.37 29.9338 169.559 30.1758C170.135 30.8719 171.173 30.9636 172.06 30.8611C172.327 30.8611 172.59 30.7976 172.827 30.6756C173.065 30.5536 173.27 30.3768 173.426 30.1596C173.507 29.9734 173.555 29.7742 173.566 29.5714C173.792 27.2132 173.238 25.195 171.178 23.9431Z" fill="#F7AF87"/>
<path d="M193.406 24.9036C194.068 24.4396 194.928 24.0834 195.67 24.4018C195.961 24.5489 196.208 24.7698 196.387 25.0424C196.567 25.315 196.672 25.6299 196.692 25.9559C196.729 26.6099 196.615 27.2637 196.359 27.8662C196.105 28.6408 195.705 29.359 195.181 29.9815C194.645 30.5977 193.895 30.984 193.083 31.0607C192.678 31.0913 192.273 31.0061 191.914 30.8151C191.555 30.6241 191.258 30.3351 191.056 29.9815C190.858 29.5071 190.767 28.9951 190.787 28.4813C190.75 28.0841 190.796 27.6835 190.921 27.305C191.239 26.5225 192.728 25.3731 193.406 24.9036Z" fill="#F7AF87"/>
<path d="M192.723 27.1215C191.884 34.1744 187.974 39.9807 182.123 39.9807C176.271 39.9807 171.528 34.2229 171.528 27.1215C171.528 20.02 175.292 12.012 181.144 12.012C186.995 12.012 194.433 12.6973 192.723 27.1215Z" fill="#F7AF87"/>
<path d="M171.533 23.8784L171.63 25.4541C171.63 25.7023 171.71 25.9937 171.952 26.0638C172.194 26.134 172.431 25.6969 172.436 25.3731C172.436 24.078 172.033 22.6156 172.834 21.5958C173.035 21.3967 173.215 21.1779 173.372 20.9428C173.706 20.2683 173.2 19.4103 173.501 18.7196C173.679 18.3256 174.071 18.0828 174.356 17.7536C174.706 17.2393 174.973 16.673 175.147 16.0754C175.212 15.8744 175.338 15.6989 175.507 15.5736C175.669 15.506 175.839 15.4606 176.013 15.4387C176.669 15.2714 177.056 14.5968 177.626 14.2461C178.142 13.9884 178.72 13.8801 179.294 13.9331C181.536 14.0033 183.87 14.8019 185.946 13.9331C186.799 15.1496 188.096 15.9795 189.555 16.2427C189.677 16.2499 189.794 16.291 189.894 16.3614C189.99 16.4774 190.053 16.6172 190.077 16.7661C190.291 17.2406 190.594 17.6692 190.97 18.0288C192.266 19.6477 192.239 21.8872 192.142 23.9647L191.992 27.2618L193.137 25.33C193.255 25.1044 193.41 24.9002 193.594 24.7256C193.804 24.5475 194.084 24.4396 194.213 24.186C194.267 24.0595 194.298 23.9242 194.304 23.7866L194.584 20.959C194.666 20.4495 194.648 19.9289 194.53 19.4265C194.433 19.1135 194.261 18.8275 194.164 18.5145C194.057 17.9397 194.04 17.3514 194.116 16.7715C194.153 16.4811 194.127 16.186 194.04 15.9065C193.953 15.6271 193.806 15.3699 193.61 15.1527C193.987 13.8899 194.342 12.5517 194.046 11.2674C193.75 9.98305 192.562 8.81208 191.265 9.00634C191.069 9.05864 190.865 9.07328 190.663 9.04951C190.493 8.99098 190.337 8.89721 190.206 8.7743C189.302 8.05971 188.199 7.64484 187.049 7.58713C185.695 7.50078 184.337 7.50078 182.983 7.58713C179.939 7.84075 176.744 7.20939 173.899 8.31022C173.214 8.56368 172.583 8.94447 172.038 9.43264C171.477 10.0079 170.994 10.6558 170.602 11.3591C170.384 11.6719 170.222 12.0208 170.124 12.3898C170.078 12.795 170.078 13.2041 170.124 13.6093C170.124 14.9638 169.435 16.3075 169.661 17.6295C169.742 18.1206 169.941 18.5793 170.011 19.0703C170.048 19.5174 170.048 19.9669 170.011 20.414C169.974 21.5451 170.171 22.6716 170.592 23.7219C170.662 23.9 170.774 24.105 170.968 24.1212C171.162 24.1374 171.361 23.6679 171.533 23.8784Z" fill="#404040"/>
<path d="M173.076 35.7285C173.222 36.3811 173.446 37.0135 173.743 37.6118C174.508 38.9126 175.712 39.895 177.137 40.3801C178.554 40.8528 180.038 41.0916 181.531 41.087C183.535 41.1412 185.539 41.022 187.522 40.7308C188.232 40.6283 188.178 40.4718 188.749 40.0455C189.668 39.3548 190.722 38.1244 190.9 36.9858C191.47 33.6024 192.422 28.8915 192.282 25.4595C191.368 27.1539 191.379 30.7801 190.05 32.1724C189.329 32.9225 188.254 33.1815 187.232 33.3487C183.944 33.895 180.586 33.8494 177.314 33.2138C176.325 33.1013 175.39 32.6998 174.625 32.059C173.464 30.9097 173.55 29.0587 173.297 27.4399C173.195 26.7276 172.92 25.6645 172.141 25.4271C171.904 26.8463 172.227 28.4004 172.259 29.8304C172.307 31.8212 172.581 33.8001 173.076 35.7285Z" fill="#404040"/>
<path d="M170.452 26.2041C170.454 26.0421 170.434 25.8805 170.393 25.7239C170.371 25.6459 170.325 25.5766 170.263 25.5255C170.2 25.4743 170.124 25.4437 170.043 25.4379C169.871 25.4379 169.747 25.5998 169.667 25.7508C169.377 26.3908 169.348 27.1188 169.586 27.7798C169.762 28.4542 170.177 29.0411 170.753 29.4311C170.894 29.5364 171.061 29.5998 171.236 29.6141C171.411 29.6284 171.587 29.593 171.743 29.512C172.28 29.1397 172.071 28.0496 171.587 27.7475C171.291 27.564 171.049 27.5856 170.818 27.2618C170.596 26.9521 170.469 26.5848 170.452 26.2041Z" fill="url(#paint3_linear)"/>
<path d="M194.374 26.2041C194.372 26.0421 194.392 25.8805 194.433 25.7239C194.455 25.6459 194.501 25.5766 194.563 25.5255C194.626 25.4743 194.702 25.4437 194.783 25.4379C194.955 25.4379 195.079 25.5998 195.159 25.7508C195.449 26.3908 195.478 27.1188 195.24 27.7798C195.064 28.4542 194.649 29.0411 194.073 29.4311C193.932 29.5364 193.765 29.5998 193.59 29.6141C193.415 29.6284 193.239 29.593 193.083 29.512C192.546 29.1397 192.761 28.0496 193.239 27.7475C193.535 27.564 193.777 27.5856 194.008 27.2618C194.23 26.9521 194.357 26.5848 194.374 26.2041Z" fill="url(#paint4_linear)"/>
<path d="M188.372 42.5332C187.833 42.2884 187.239 42.1915 186.651 42.2526C183.021 42.3497 179.267 43.1052 175.852 41.8694C175.266 42.4398 174.837 43.1514 174.604 43.9362C174.254 45.5928 175.647 47.1308 177.153 47.8862C179.697 49.1705 182.677 49.1436 185.516 48.9655C186.63 48.9007 187.834 48.7874 188.663 48.0319C189.98 46.8556 190.05 43.4775 188.372 42.5332Z" fill="#68E1FD"/>
<path d="M174.534 45.1665C174.534 45.1665 173.361 47.978 179.208 48.0967C179.208 48.0967 173.361 48.2154 171.726 49.5051C170.092 50.7948 165.999 52.786 165.767 55.3708C165.536 57.9556 164.127 64.8682 164.127 64.8682L159.475 66.6598L162.379 53.1692C163.756 51.0755 165.544 49.2859 167.634 47.9098C169.724 46.5338 172.072 45.6003 174.534 45.1665Z" fill="url(#paint5_linear)"/>
</g>
<defs>
<linearGradient id="paint0_linear" x1="31.6293" y1="46.7098" x2="27.5972" y2="30.5058" gradientUnits="userSpaceOnUse">
<stop stop-opacity="0"/>
<stop offset="0.99"/>
</linearGradient>
<linearGradient id="paint1_linear" x1="5602.51" y1="1475.62" x2="5675.94" y2="1275.61" gradientUnits="userSpaceOnUse">
<stop stop-opacity="0"/>
<stop offset="0.99"/>
</linearGradient>
<linearGradient id="paint2_linear" x1="3346.63" y1="1467.24" x2="3368.1" y2="1028.3" gradientUnits="userSpaceOnUse">
<stop stop-opacity="0"/>
<stop offset="0.99"/>
</linearGradient>
<linearGradient id="paint3_linear" x1="1025.27" y1="724.263" x2="1051.93" y2="721.827" gradientUnits="userSpaceOnUse">
<stop stop-opacity="0"/>
<stop offset="0.99"/>
</linearGradient>
<linearGradient id="paint4_linear" x1="2648.95" y1="724.263" x2="2622.31" y2="721.83" gradientUnits="userSpaceOnUse">
<stop stop-opacity="0"/>
<stop offset="0.99"/>
</linearGradient>
<linearGradient id="paint5_linear" x1="6716.84" y1="5257.27" x2="5914.21" y2="2715.46" gradientUnits="userSpaceOnUse">
<stop stop-opacity="0"/>
<stop offset="0.99"/>
</linearGradient>
<clipPath id="clip0">
<rect width="216" height="70" fill="white"/>
</clipPath>
</defs>
</svg>
